<svg xmlns="http://www.w3.org/2000/svg" width="108" height="16" viewBox="0 0 108 16" fill="none"><path d="M7.63163 0.537412C7.86445 -0.179137 8.87817 -0.179138 9.11099 0.537412L10.554 4.97855C10.6581 5.299 10.9567 5.51596 11.2937 5.51596H15.9634C16.7168 5.51596 17.0301 6.48007 16.4205 6.92292L12.6427 9.6677C12.3701 9.86575 12.256 10.2168 12.3601 10.5372L13.8032 14.9784C14.036 15.6949 13.2158 16.2908 12.6063 15.8479L8.82846 13.1032C8.55587 12.9051 8.18675 12.9051 7.91416 13.1032L4.1363 15.8479C3.52677 16.2908 2.70665 15.6949 2.93947 14.9784L4.38248 10.5372C4.4866 10.2168 4.37254 9.86575 4.09995 9.6677L0.322091 6.92292C-0.287442 6.48007 0.0258153 5.51596 0.77924 5.51596H5.44893C5.78587 5.51596 6.08449 5.299 6.18861 4.97855L7.63163 0.537412Z" fill="white"/><path d="M30.3742 0.537412C30.6071 -0.179137 31.6208 -0.179138 31.8536 0.537412L33.2966 4.97855C33.4007 5.299 33.6994 5.51596 34.0363 5.51596H38.706C39.4594 5.51596 39.7727 6.48007 39.1631 6.92292L35.3853 9.6677C35.1127 9.86575 34.9986 10.2168 35.1028 10.5372L36.5458 14.9784C36.7786 15.6949 35.9585 16.2908 35.3489 15.8479L31.5711 13.1032C31.2985 12.9051 30.9294 12.9051 30.6568 13.1032L26.8789 15.8479C26.2694 16.2908 25.4493 15.6949 25.6821 14.9784L27.1251 10.5372C27.2292 10.2168 27.1152 9.86575 26.8426 9.6677L23.0647 6.92292C22.4552 6.48007 22.7684 5.51596 23.5219 5.51596H28.1915C28.5285 5.51596 28.8271 5.299 28.9312 4.97855L30.3742 0.537412Z" fill="white"/><path d="M53.1169 0.537412C53.3497 -0.179137 54.3634 -0.179138 54.5962 0.537412L56.0392 4.97855C56.1434 5.299 56.442 5.51596 56.7789 5.51596H61.4486C62.202 5.51596 62.5153 6.48007 61.9058 6.92292L58.1279 9.6677C57.8553 9.86575 57.7412 10.2168 57.8454 10.5372L59.2884 14.9784C59.5212 15.6949 58.7011 16.2908 58.0915 15.8479L54.3137 13.1032C54.0411 12.9051 53.672 12.9051 53.3994 13.1032L49.6215 15.8479C49.012 16.2908 48.1919 15.6949 48.4247 14.9784L49.8677 10.5372C49.9718 10.2168 49.8578 9.86575 49.5852 9.6677L45.8073 6.92292C45.1978 6.48007 45.511 5.51596 46.2645 5.51596H50.9342C51.2711 5.51596 51.5697 5.299 51.6738 4.97855L53.1169 0.537412Z" fill="white"/><path d="M75.8595 0.537412C76.0924 -0.179137 77.1061 -0.179138 77.3389 0.537412L78.7819 4.97855C78.886 5.299 79.1847 5.51596 79.5216 5.51596H84.1913C84.9447 5.51596 85.258 6.48007 84.6484 6.92292L80.8706 9.6677C80.598 9.86575 80.4839 10.2168 80.588 10.5372L82.0311 14.9784C82.2639 15.6949 81.4438 16.2908 80.8342 15.8479L77.0564 13.1032C76.7838 12.9051 76.4147 12.9051 76.1421 13.1032L72.3642 15.8479C71.7547 16.2908 70.9346 15.6949 71.1674 14.9784L72.6104 10.5372C72.7145 10.2168 72.6004 9.86575 72.3279 9.6677L68.55 6.92292C67.9405 6.48007 68.2537 5.51596 69.0071 5.51596H73.6768C74.0138 5.51596 74.3124 5.299 74.4165 4.97855L75.8595 0.537412Z" fill="white"/><path d="M98.6021 0.537412C98.8349 -0.179137 99.8486 -0.179138 100.081 0.537412L101.524 4.97855C101.629 5.299 101.927 5.51596 102.264 5.51596H106.934C107.687 5.51596 108.001 6.48007 107.391 6.92292L103.613 9.6677C103.341 9.86575 103.226 10.2168 103.331 10.5372L104.774 14.9784C105.006 15.6949 104.186 16.2908 103.577 15.8479L99.7989 13.1032C99.5263 12.9051 99.1572 12.9051 98.8846 13.1032L95.1068 15.8479C94.4972 16.2908 93.6771 15.6949 93.9099 14.9784L95.3529 10.5372C95.4571 10.2168 95.343 9.86575 95.0704 9.6677L91.2926 6.92292C90.683 6.48007 90.9963 5.51596 91.7497 5.51596H96.4194C96.7563 5.51596 97.055 5.299 97.1591 4.97855L98.6021 0.537412Z" fill="white"/></svg>