<svg width="95" height="20" viewBox="0 0 95 20" fill="none" xmlns="http://www.w3.org/2000/svg">
<path fill-rule="evenodd" clip-rule="evenodd" d="M4.02693 4.65737C4.12859 5.09271 4.26934 5.54435 4.44816 6.00336C3.99144 6.04814 3.55845 6.11778 3.15583 6.21157C2.41438 6.3843 1.72647 6.65039 1.18018 7.03606C0.628971 7.42521 0.16552 7.98077 0.0352754 8.71648C-0.0949686 9.45219 0.149764 10.1321 0.534104 10.6856C0.915012 11.2341 1.47006 11.7185 2.10748 12.1334C2.22656 12.2109 2.34999 12.2869 2.47753 12.3614C3.72255 13.094 5.36517 13.6754 7.17533 13.9933C9.2168 14.3518 11.1589 14.1599 12.6349 13.7352C12.7156 13.7119 12.7954 13.6879 12.8741 13.663C12.6573 14.574 12.5098 15.4428 12.4404 16.2127C12.3726 16.9646 12.374 17.6779 12.487 18.2628C12.5724 18.7052 12.7859 19.4007 13.3997 19.7516C13.4816 19.8008 13.5708 19.8438 13.6681 19.8791C14.408 20.1473 15.0871 19.8032 15.5089 19.4943C15.9676 19.1585 16.4095 18.6626 16.8187 18.0962C17.6457 16.9516 18.4805 15.3205 19.1556 13.4728C19.8308 11.6251 20.244 9.84113 20.3492 8.4349C20.4012 7.73899 20.3827 7.07621 20.2481 6.52533C20.1395 6.08049 19.8964 5.48794 19.338 5.16839C19.2525 5.11708 19.1594 5.07224 19.058 5.03548C18.3955 4.7953 17.7618 5.01508 17.3047 5.29578C16.838 5.5824 16.3978 6.02124 15.9946 6.53356C15.7118 6.89282 15.4294 7.31103 15.1528 7.78158C14.7007 6.63365 13.9853 5.34158 12.9283 4.08693C11.7901 2.7359 10.5171 1.64126 9.29925 0.930202C9.12402 0.827106 8.9499 0.731921 8.77745 0.645024C8.09801 0.302642 7.39931 0.0660623 6.73193 0.0117552C6.05854 -0.0430412 5.34499 0.085822 4.77042 0.566023L4.79033 0.589649C4.22409 1.0675 3.96318 1.75777 3.87197 2.42971C3.77919 3.11321 3.84518 3.87906 4.02693 4.65737ZM7.89499 2.45462C8.01948 2.51735 8.14664 2.58653 8.27601 2.66198C9.24691 3.23375 10.3393 4.15683 11.3546 5.36198C11.9965 6.124 12.4871 6.89688 12.8524 7.62113C11.6599 6.98613 10.1606 6.48349 8.52445 6.19614C7.8815 6.08322 7.24699 6.00874 6.63235 5.97149C6.33395 5.35395 6.12038 4.75223 5.99193 4.20217C5.84816 3.58646 5.82019 3.07497 5.87123 2.69893C5.9234 2.31465 6.04196 2.16666 6.09551 2.12191C6.14653 2.07927 6.27761 2.00518 6.59595 2.03109C6.92031 2.05748 7.36044 2.18525 7.89499 2.45462ZM7.49737 11.9978C5.8832 11.7144 4.49163 11.2074 3.50088 10.6296C3.41025 10.5763 3.32304 10.5223 3.23939 10.4678C2.73791 10.1414 2.40675 9.82566 2.22162 9.55908C2.03993 9.29744 2.0388 9.14733 2.05037 9.08199C2.06194 9.01665 2.11454 8.87598 2.37512 8.69201C2.64062 8.50457 3.06024 8.32066 3.64357 8.18478C4.15959 8.06457 4.76519 7.99089 5.43466 7.97341C5.76645 8.51188 6.14802 9.04323 6.57777 9.55334C7.59614 10.7622 8.801 11.6091 9.99629 12.1338C9.21542 12.1835 8.36761 12.1507 7.49737 11.9978ZM8.20242 8.19161C9.81665 8.47511 11.2083 8.98211 12.199 9.55988C12.2896 9.61325 12.3768 9.6672 12.4604 9.72162C12.9619 10.048 13.293 10.3638 13.4782 10.6304C13.5028 10.6658 13.5241 10.6993 13.5425 10.7307C13.4564 10.7495 13.3589 10.7651 13.249 10.7755C12.834 10.8148 12.3097 10.7734 11.7226 10.6169C10.5501 10.3044 9.21341 9.55577 8.12323 8.26171C8.09595 8.22933 8.06891 8.19687 8.04212 8.16433C8.0954 8.17311 8.14884 8.18221 8.20242 8.19161ZM17.6105 7.78996C17.8769 7.45151 18.1061 7.22937 18.2832 7.09705C18.3304 7.36285 18.3476 7.75302 18.309 8.26904C18.2211 9.44445 17.862 11.0437 17.2316 12.769C16.6011 14.4942 15.8441 15.9492 15.1529 16.9059C14.8919 17.2671 14.6594 17.5306 14.4673 17.7076C14.4307 17.3901 14.429 16.9539 14.4781 16.409C14.5913 15.1526 14.9559 13.5157 15.5365 11.8719C15.5668 11.8075 15.5938 11.7397 15.6164 11.6686C15.6672 11.5605 15.7026 11.4521 15.7277 11.3511C16.3301 9.77193 17.0045 8.55978 17.6105 7.78996Z" fill="white"/>
<path d="M22.5823 16.1584V2.21025H28.0955C29.1941 2.21025 30.1435 2.37443 30.9436 2.70277C31.7574 3.01798 32.3813 3.5302 32.8153 4.23943C33.2628 4.93552 33.4866 5.85489 33.4866 6.99753C33.4866 8.08763 33.2425 9.00043 32.7542 9.73593C32.266 10.4583 31.5946 11.0033 30.7402 11.3711C29.8993 11.7257 28.9364 11.903 27.8514 11.903H25.3084V16.1584H22.5823ZM25.3084 9.53892H27.8107C28.7058 9.53892 29.4246 9.32878 29.9671 8.9085C30.5096 8.48822 30.7809 7.84466 30.7809 6.97783C30.7809 6.20293 30.5503 5.62504 30.0892 5.24416C29.6416 4.85015 28.9364 4.65314 27.9734 4.65314H25.3084V9.53892Z" fill="white"/>
<path d="M37.4542 16.2766C36.8032 16.2766 36.1928 16.1715 35.6232 15.9614C35.0672 15.7381 34.6196 15.4032 34.2805 14.9566C33.9415 14.4969 33.7719 13.919 33.7719 13.223C33.7719 12.7107 33.8669 12.2773 34.0568 11.9227C34.2602 11.555 34.5247 11.2529 34.8502 11.0165C35.1892 10.7669 35.5758 10.5699 36.0098 10.4255C36.4438 10.281 36.8913 10.1693 37.3524 10.0905C37.8271 9.9986 38.3561 9.92637 38.9393 9.87383C39.5224 9.8213 40.1463 9.7622 40.8109 9.69653C40.8109 9.30251 40.7295 8.9676 40.5668 8.69179C40.404 8.40285 40.1734 8.18614 39.8751 8.04167C39.5767 7.88406 39.2105 7.80526 38.7765 7.80526C38.3154 7.80526 37.9153 7.88406 37.5762 8.04167C37.2372 8.18614 36.9795 8.43568 36.8032 8.79029H34.0974C34.2331 8.00226 34.5314 7.37841 34.9926 6.91872C35.4673 6.45904 36.0437 6.1307 36.7218 5.93369C37.3999 5.72355 38.0984 5.61848 38.8172 5.61848C39.9158 5.61848 40.7973 5.80892 41.4619 6.1898C42.1264 6.57068 42.6079 7.12887 42.9063 7.86436C43.2047 8.58672 43.3539 9.47325 43.3539 10.524V16.1584H41.3547L40.8516 14.8975C40.5396 15.2653 40.1802 15.5542 39.7734 15.7643C39.38 15.9614 38.9799 16.0927 38.5731 16.1584C38.1798 16.2372 37.8068 16.2766 37.4542 16.2766ZM38.0034 14.1883C38.5188 14.1883 38.9799 14.0964 39.3868 13.9125C39.8073 13.7286 40.1395 13.4659 40.3837 13.1245C40.6414 12.7698 40.7838 12.3496 40.8109 11.8636V11.4696C40.5125 11.4959 40.2141 11.5287 39.9158 11.5681C39.6174 11.5944 39.3122 11.6272 39.0003 11.6666C38.7019 11.6929 38.4035 11.7323 38.1052 11.7848C37.6034 11.8505 37.1965 11.9884 36.8845 12.1985C36.5726 12.4087 36.4166 12.6976 36.4166 13.0653C36.4166 13.3543 36.498 13.5841 36.6608 13.7549C36.8371 13.9125 37.0473 14.0241 37.2914 14.0898C37.5355 14.1555 37.7729 14.1883 38.0034 14.1883Z" fill="white"/>
<path d="M44.6438 20V5.77608H46.765L47.2681 7.11573C47.7021 6.59038 48.2039 6.2095 48.7736 5.97309C49.3432 5.72355 49.9739 5.59878 50.6655 5.59878C51.7234 5.59878 52.5982 5.83519 53.2899 6.308C53.9816 6.78082 54.4969 7.42438 54.836 8.23867C55.1886 9.03983 55.3649 9.9395 55.3649 10.9377C55.3649 11.9621 55.1819 12.8815 54.8157 13.6958C54.463 14.4969 53.9273 15.1339 53.2085 15.6067C52.5033 16.0664 51.6149 16.2963 50.5435 16.2963C50.0552 16.2963 49.6077 16.2437 49.2008 16.1387C48.7939 16.0336 48.4277 15.8891 48.1022 15.7052C47.7903 15.5082 47.5258 15.2915 47.3088 15.0551V20H44.6438ZM50.0959 13.9716C50.7605 13.9716 51.2826 13.8271 51.6624 13.5382C52.0421 13.2492 52.3134 12.8815 52.4761 12.4349C52.6389 11.9752 52.7203 11.4959 52.7203 10.9968C52.7203 10.4714 52.6321 9.9789 52.4558 9.51922C52.293 9.0464 52.015 8.66552 51.6217 8.37658C51.2284 8.08763 50.7062 7.94316 50.0552 7.94316C49.4585 7.94316 48.9499 8.08763 48.5294 8.37658C48.1226 8.65239 47.8106 9.02013 47.5936 9.47982C47.3902 9.9395 47.2885 10.4386 47.2885 10.9771C47.2885 11.5156 47.3902 12.0146 47.5936 12.4743C47.7971 12.9209 48.1022 13.2821 48.5091 13.5579C48.9295 13.8337 49.4585 13.9716 50.0959 13.9716Z" fill="white"/>
<path d="M56.5135 16.1584V5.77608H59.1786V16.1584H56.5135ZM57.8562 4.65314C57.3544 4.65314 56.9475 4.50867 56.6356 4.21973C56.3372 3.91765 56.188 3.53677 56.188 3.07708C56.188 2.60427 56.344 2.21682 56.6559 1.91474C56.9814 1.61266 57.3883 1.46163 57.8766 1.46163C58.3241 1.46163 58.7107 1.61266 59.0362 1.91474C59.3752 2.20369 59.5448 2.58457 59.5448 3.05738C59.5448 3.5302 59.382 3.91765 59.0565 4.21973C58.7446 4.50867 58.3445 4.65314 57.8562 4.65314Z" fill="white"/>
<path d="M64.0426 16.2766C63.256 16.2766 62.5982 16.1452 62.0693 15.8825C61.5539 15.6067 61.1674 15.1996 60.9097 14.6611C60.6656 14.1226 60.5435 13.4528 60.5435 12.6516V2.21025H63.2085V12.1394C63.2085 12.494 63.2425 12.8027 63.3103 13.0653C63.3916 13.328 63.5273 13.5316 63.7171 13.6761C63.9206 13.8205 64.2054 13.8928 64.5716 13.8928C64.8428 13.8928 65.1005 13.8534 65.3447 13.7746C65.5888 13.6826 65.8126 13.5579 66.016 13.4003L66.6392 15.39C66.4217 15.793 66.0024 15.9679 65.5277 16.0993C65.0666 16.2175 64.5716 16.2766 64.0426 16.2766Z" fill="white"/>
<path d="M70.416 16.2766C69.6293 16.2766 68.9716 16.1452 68.4426 15.8825C67.9272 15.6067 67.5407 15.1996 67.283 14.6611C67.0389 14.1226 66.9168 13.4528 66.9168 12.6516V2.21025H69.5819V12.1394C69.5819 12.494 69.6158 12.8027 69.6836 13.0653C69.765 13.328 69.9006 13.5316 70.0905 13.6761C70.2939 13.8205 70.5787 13.8928 70.9449 13.8928C71.2161 13.8928 71.4738 13.8534 71.718 13.7746C71.9621 13.6826 72.1859 13.5579 72.3893 13.4003L73.2641 15.39C72.8301 15.7315 72.3757 15.9679 71.9011 16.0993C71.4399 16.2175 70.9449 16.2766 70.416 16.2766Z" fill="white"/>
<path d="M78.2133 16.2963C77.1148 16.2963 76.1654 16.0796 75.3652 15.6461C74.565 15.2127 73.9412 14.602 73.4936 13.814C73.0596 13.0128 72.8426 12.0672 72.8426 10.9771C72.8426 9.87383 73.0664 8.92163 73.5139 8.12047C73.9615 7.31931 74.5854 6.70202 75.3856 6.2686C76.1858 5.82205 77.1216 5.59878 78.193 5.59878C79.278 5.59878 80.2138 5.82205 81.0004 6.2686C81.8006 6.71515 82.4177 7.34557 82.8517 8.15987C83.2857 8.96103 83.5027 9.91323 83.5027 11.0165C83.5027 12.0934 83.2857 13.0325 82.8517 13.8337C82.4313 14.6217 81.8278 15.2324 81.0411 15.6658C80.2545 16.0861 79.3119 16.2963 78.2133 16.2963ZM78.1727 13.9322C78.8237 13.9322 79.3458 13.7943 79.7391 13.5185C80.146 13.2427 80.4376 12.8815 80.6139 12.4349C80.7902 11.9884 80.8784 11.509 80.8784 10.9968C80.8784 10.4846 80.7902 9.9986 80.6139 9.53892C80.4376 9.07924 80.1528 8.70492 79.7595 8.41598C79.3662 8.12704 78.8372 7.98256 78.1727 7.98256C77.5352 7.98256 77.0131 8.12704 76.6062 8.41598C76.2129 8.70492 75.9213 9.07924 75.7314 9.53892C75.5551 9.98547 75.4669 10.4714 75.4669 10.9968C75.4669 11.509 75.5551 11.9949 75.7314 12.4546C75.9213 12.9012 76.2129 13.2624 76.6062 13.5382C77.0131 13.8008 77.5352 13.9322 78.1727 13.9322Z" fill="white"/>
<path d="M84.3909 16.1584V5.77608H86.5324L87.0356 7.03693C87.3204 6.66918 87.6526 6.38681 88.0324 6.1898C88.4257 5.97966 88.8258 5.82862 89.2327 5.73668C89.6396 5.64475 90.0193 5.59878 90.3719 5.59878C91.3891 5.59878 92.1893 5.81548 92.7725 6.2489C93.3557 6.68232 93.7693 7.26677 94.0135 8.00226C94.2712 8.72462 94.4 9.53235 94.4 10.4255V16.1584H91.735V10.7998C91.735 10.4452 91.7078 10.1037 91.6536 9.77533C91.5993 9.43385 91.4976 9.12521 91.3484 8.8494C91.1992 8.57359 90.989 8.35688 90.7178 8.19927C90.4465 8.02853 90.0871 7.94316 89.6396 7.94316C89.0699 7.94316 88.5885 8.08763 88.1952 8.37658C87.8154 8.65239 87.5306 9.0267 87.3407 9.49952C87.1508 9.97234 87.0559 10.5043 87.0559 11.0953V16.1584H84.3909Z" fill="white"/>
</svg>
